<?xml version="1.0" encoding="utf-8"?>
<!-- Generator: Adobe Illustrator 24.2.3, SVG Export Plug-In . SVG Version: 6.00 Build 0)  -->
<svg version="1.1" id="Capa_1" xmlns="http://www.w3.org/2000/svg" xmlns:xlink="http://www.w3.org/1999/xlink" x="0px" y="0px"
	 viewBox="0 0 79.3 79.3" style="enable-background:new 0 0 79.3 79.3;" xml:space="preserve">
<style type="text/css">
	.st0{fill:#3865AB;}
	.st1{fill:#66D566;}
	.st2{fill:#66E81A;}
</style>
<g id="Layer_2">
	<g id="Layer_1-2">
		<path class="st0" d="M55.6,76.1l-9.9-31.1c-0.2-0.5,0.1-1.1,0.7-1.3c0.1,0,0.2-0.1,0.3,0l15.8,0.1l16.8,0.1
			C78,58.1,68.8,70.5,55.6,76.1z"/>
		<path class="st1" d="M79.3,35.8l-19.1-0.1l-15.4-0.1c-0.6,0-1-0.4-1-1L44,0.1C62.8,2.1,77.5,17,79.3,35.8z"/>
		<path class="st2" d="M21.5,74.9C2,64.8-5.6,40.8,4.4,21.3C9.3,12,17.6,4.9,27.7,1.7C30.4,0.8,33.2,0.3,36,0l-0.2,39.6
			c0,0,0,0.1,0,0.1c0,0.1,0,0.3,0,0.4c0,0.1,0,0.1,0,0.2c0,0,0,0.1,0,0.1c0,0.1,0.1,0.3,0.1,0.4L48,78.5
			C39,80.4,29.7,79.1,21.5,74.9z"/>
	</g>
</g>
</svg>
